<svg width="96" height="96" viewBox="0 0 96 96" fill="none" xmlns="http://www.w3.org/2000/svg">
<path fill-rule="evenodd" clip-rule="evenodd" d="M12.2692 43.0694C10.1001 42.4959 8.87954 40.5033 9.29865 38.518C9.66629 36.7901 11.5927 35.099 13.9456 35.6578C15.6368 36.0548 17.4897 37.9151 16.8426 40.2165C16.4088 41.768 14.5485 43.6723 12.2692 43.0694Z" fill="#D7EAF3"/>
<path fill-rule="evenodd" clip-rule="evenodd" d="M7.19023 54.4736C2.85944 53.1795 4.30058 46.937 8.84461 47.8782C10.4255 48.209 11.8446 49.9149 11.3593 51.981C10.999 53.481 9.25637 55.0913 7.19023 54.4736Z" fill="#D7EAF3"/>
<path fill-rule="evenodd" clip-rule="evenodd" d="M13.2545 71.9218C10.1516 71.113 11.5707 66.9586 14.2251 67.7086C17.2397 68.5615 15.7839 72.5835 13.2545 71.9218Z" fill="#D7EAF3"/>
<path fill-rule="evenodd" clip-rule="evenodd" d="M20.1445 38.2974C17.5195 37.6136 18.9827 34.371 20.9092 34.8343C23.1591 35.3784 22.2768 38.8415 20.1445 38.2974Z" fill="#D7EAF3"/>
<path fill-rule="evenodd" clip-rule="evenodd" d="M9.78481 60.8558C9.48335 60.694 8.72601 60.319 9.226 59.4808C9.43923 59.1132 10.0716 58.5985 10.7113 58.9294C11.9759 59.5691 10.998 61.5176 9.78481 60.8558Z" fill="#D7EAF3"/>
<path fill-rule="evenodd" clip-rule="evenodd" d="M13.9031 47.5546C12.5207 47.1061 13.4104 45.5032 14.5722 45.9002C15.7266 46.2899 15.1604 47.959 13.9031 47.5546Z" fill="#D7EAF3"/>
<path fill-rule="evenodd" clip-rule="evenodd" d="M6.21799 40.9224C5.01265 40.4153 5.77702 39.1291 6.74717 39.4671C7.71732 39.7979 7.1661 41.3119 6.21799 40.9224Z" fill="#D7EAF3"/>
<path fill-rule="evenodd" clip-rule="evenodd" d="M25.8936 35.1211C25.1733 34.6507 26.0185 33.9084 26.5403 34.2832C27.0989 34.6801 26.4889 35.5179 25.8936 35.1211Z" fill="#D7EAF3"/>
<path fill-rule="evenodd" clip-rule="evenodd" d="M19.0342 41.1871C18.2331 40.7608 18.9533 40.0259 19.5854 40.3419C20.0337 40.5697 19.8647 41.6207 19.0342 41.1871Z" fill="#D7EAF3"/>
<path fill-rule="evenodd" clip-rule="evenodd" d="M88.0403 38.1329C83.761 38.9785 84.9448 44.4563 88.805 44.0152C90.2682 43.8534 91.6064 42.4049 91.3858 40.6329C91.224 39.3461 89.5844 37.8241 88.0403 38.1329Z" fill="#D7EAF3"/>
<path fill-rule="evenodd" clip-rule="evenodd" d="M85.1275 45.7701C82.0026 46.4907 83.0099 50.7994 85.929 50.2553C87.0466 50.0494 88.0466 49.0495 87.7525 47.5936C87.554 46.5936 86.3702 45.4834 85.1275 45.7701Z" fill="#D7EAF3"/>
<path fill-rule="evenodd" clip-rule="evenodd" d="M83.8083 32.6517C81.0878 33.3429 82.1172 37.1884 84.7201 36.6149C85.6318 36.4164 86.6171 35.4531 86.2789 34.1811C86.0436 33.2988 85.0142 32.3429 83.8083 32.6517Z" fill="#D7EAF3"/>
<path fill-rule="evenodd" clip-rule="evenodd" d="M80.4512 24.2969C79.7821 24.5322 79.6939 24.5469 79.3336 25.0763C78.3042 26.5763 80.0101 28.2674 81.3924 27.8262C82.0615 27.613 83.1056 26.6866 82.7453 25.5836C82.51 24.8557 81.5395 23.8999 80.4512 24.2969Z" fill="#D7EAF3"/>
<path fill-rule="evenodd" clip-rule="evenodd" d="M78.9198 55.961C76.5743 56.7993 78.111 59.3507 79.8389 58.7698C82.1918 57.9904 80.6919 55.3287 78.9198 55.961Z" fill="#D7EAF3"/>
<path fill-rule="evenodd" clip-rule="evenodd" d="M89.1773 41.057C88.6479 40.6379 88.442 40.7334 87.8685 41.1526C87.567 41.3731 86.9935 41.9393 87.2876 42.5055C87.6552 43.2187 89.1993 42.8143 89.1773 41.057Z" fill="#D7EAF3"/>
<path fill-rule="evenodd" clip-rule="evenodd" d="M88.4867 51.6376C87.2299 52.2108 88.0972 53.4823 88.9718 53.2104C90.0007 52.887 89.5671 51.1451 88.4867 51.6376Z" fill="#D7EAF3"/>
<path fill-rule="evenodd" clip-rule="evenodd" d="M80.6626 52.9978C79.8467 53.3653 80.6258 54.2767 81.1844 54.0488C81.8458 53.7842 81.4857 52.6377 80.6626 52.9978Z" fill="#D7EAF3"/>
<path fill-rule="evenodd" clip-rule="evenodd" d="M26.6502 72.8771L20.1993 72.871C20.0527 71.5393 20.3214 70.7635 21.5066 70.5802C22.8994 70.3664 38.5992 70.5374 41.0428 70.5497C43.9567 70.5558 46.2048 70.0548 46.8401 72.5961C45.5939 73.1704 29.4848 72.8771 26.6502 72.8771ZM37.1575 68.3444L37.0292 65.6442L55.9912 65.6259C56.0584 69.8594 56.822 67.9534 47.8358 68.4482C44.4515 68.6376 40.4319 68.772 37.1575 68.3444ZM28.0858 67.5685C27.3467 63.7871 32.7774 62.2966 34.0664 66.2062C34.4085 67.2509 34.1703 69.2973 32.0077 69.6394C30.0346 69.951 28.4035 69.224 28.0858 67.5685ZM44.1094 58.5763C44.4821 58.4541 44.3965 58.3991 44.3415 58.7901C44.3232 59.517 44.3538 59.4682 43.8284 59.7675C43.4008 60.0057 43.0281 60.134 42.5455 60.1951C42.405 60.2929 42.5761 60.58 42.2218 60.1585C41.9469 60.1829 42.008 60.244 42.0507 59.9691L41.8613 59.8164C41.3849 59.4132 42.0507 60.2012 41.4826 59.2482C41.4582 59.2055 41.4276 59.1322 41.391 59.0833L38.1899 59.963C38.2754 58.8206 38.5564 57.9409 38.6664 56.9452L38.7886 54.0618C38.9108 53.1821 40.9878 52.6201 41.9102 52.3941L46.2964 56.6459C44.5676 57.9287 44.0666 57.3178 44.1094 58.5763ZM27.3467 65.1372C26.7113 67.6907 26.8335 67.2264 27.646 69.4562C23.0399 69.615 18.275 63.7077 17.9634 58.729C17.5725 52.4246 21.476 46.8839 24.7443 44.8557C25.2147 45.375 25.3735 46.1814 25.7522 46.7861C26.2409 47.562 26.4914 47.9529 27.3344 48.295C26.8579 48.9304 22.7467 50.873 22.4718 56.6398C22.3374 59.5598 23.4003 62.0156 25.3674 63.6527C26.0394 64.2148 26.8518 64.5446 27.3467 65.1372ZM29.4237 47.8918C27.3711 47.8857 24.897 44.6053 26.1188 41.8563C26.4792 41.0499 27.6888 40.0297 28.6784 39.6143C30.169 38.9912 31.4518 39.3455 32.5514 39.9259C32.8752 39.932 32.8324 39.8404 32.7713 40.1275C33.089 40.0542 33.0523 39.9747 32.9546 40.2863C33.2906 40.1886 33.2295 40.1397 33.1134 40.4696C33.4616 40.3596 33.3944 40.3107 33.2723 40.6589C33.6877 40.8422 33.9503 41.2393 34.1825 41.673C34.4085 42.0945 34.549 42.455 34.604 42.9864C34.7201 44.031 34.5124 45.0207 34.042 45.8148C33.651 46.4685 32.9118 47.3054 32.246 47.6841C31.7206 47.9835 30.1018 48.4539 29.4237 47.8918ZM34.9522 32.1493L35.1171 32.4792C36.2839 34.3424 40.2364 42.9986 41.5864 45.6804C42.2523 46.9877 43.3825 48.8815 43.6574 50.2865C41.8369 50.8608 37.7317 53.2554 35.9418 53.4021C35.4654 51.5694 34.3291 49.7428 33.7243 48.1484C34.2741 47.226 34.8484 46.9511 35.3248 45.5705C36.4061 42.4488 34.83 38.9179 31.3968 38.2643L28.9044 38.2215L25.178 29.4736C26.3081 28.8994 31.0975 26.7063 32.1788 26.5047L34.9522 32.1493ZM26.8763 27.2683C26.693 26.9201 25.6789 25.234 25.7583 24.9164C25.8622 24.4704 28.0492 24.3971 28.6967 24.4521C28.9777 25.008 29.3076 25.5517 29.3626 26.2725C28.88 26.4986 27.3528 27.1644 26.8763 27.2683ZM23.0704 22.6683C23.7363 22.0269 25.3552 22.0391 26.4853 21.9841C27.9331 21.9047 29.161 21.4099 29.5947 22.6561C29.0022 23.4441 27.4139 23.322 26.1982 23.4564C23.8157 23.7129 23.0888 23.9206 23.0704 22.6683ZM18.9408 72.4251C18.9042 74.5082 18.4643 73.9095 25.2635 73.8912L46.0765 73.8973C46.3147 73.8973 46.7301 73.9156 46.95 73.8973L47.848 73.653C48.1963 72.6511 47.8847 71.3927 47.2799 70.6963C46.333 69.6089 45.6488 69.9999 44.5493 69.4378L57.2068 69.5173L57.1702 64.7157C56.3455 64.3125 47.5793 64.5385 46.5957 64.5385C44.7997 64.5263 43.0098 64.5141 41.2199 64.5202L37.2247 64.5446C37.0353 64.5446 36.7116 64.5507 36.5344 64.5813C35.612 64.7401 35.7769 65.1433 35.7891 67.2264C35.7891 68.1183 35.7708 68.4543 36.1373 68.8392L36.4672 69.0957C36.4978 69.1141 36.5527 69.1507 36.5955 69.1752C37.2186 69.0469 37.0598 69.0591 37.5729 69.2973C36.8032 69.7494 34.8972 70.0304 33.8648 69.5295C34.5063 68.7231 36.9193 66.811 34.0175 63.8482C32.0994 61.8873 29.9002 62.9197 28.0431 63.9704C27.4322 63.4634 26.583 63.1152 25.9294 62.5654C22.7711 59.9019 22.7467 53.2066 27.084 50.1399C27.8354 49.6084 28.4829 49.1808 29.6558 49.2908C30.9814 49.4191 31.5312 49.0098 32.6492 48.796C33.1867 50.0055 34.8545 53.7869 35.6669 54.691C36.6321 54.7155 36.8887 54.4039 37.689 54.2756C37.8051 56.5542 36.9498 58.5579 37.1209 60.4578C38.3854 61.7162 39.0207 60.5983 40.5174 60.2929C41.1527 61.7162 41.898 61.9423 43.7184 61.2214C45.3862 60.5678 45.6366 60.4273 45.5878 58.4235C51.0124 56.5848 43.975 53.9091 43.2297 51.7282C45.1052 51.2334 45.3373 50.6347 44.4698 48.8998L39.5339 38.7346C38.4709 36.3278 37.298 34.2813 36.1862 31.8499C32.2948 23.3586 33.0401 25.2524 30.4683 25.6128C28.8922 23.1387 31.3724 23.5846 30.2606 21.6481C29.5214 20.3531 27.8109 21.0434 26.302 21.19C24.5977 21.3488 22.6123 20.8784 22.1052 22.2712C21.4394 24.11 22.9116 24.6048 24.335 24.8003C24.6587 25.68 25.5018 27.0362 25.569 27.8609C24.897 28.2213 24.2311 28.5389 23.6874 28.8505C23.5836 29.8829 25.123 32.5952 25.6117 33.7376C26.0882 34.8555 27.5544 37.6412 27.5849 38.6125C26.3753 39.8342 25.5079 39.7854 24.8848 42.0212C24.4083 43.7195 24.6282 43.2919 22.1052 45.3383C20.5414 46.609 18.4399 50.0666 17.5908 52.7606C15.8253 58.338 17.322 64.5324 21.5493 68.3321C22.0564 68.7842 22.8811 69.053 23.1987 69.6455C19.2096 69.3829 19.2463 70.5313 18.9408 72.4251Z" fill="#0C1214"/>
<path fill-rule="evenodd" clip-rule="evenodd" d="M66.6075 49.2786C64.8848 47.4643 66.9007 46.2059 68.4463 47.4154C68.5624 48.2035 68.4829 48.5395 67.927 48.8571C67.6888 48.9915 66.9679 49.2603 66.6075 49.2786ZM64.6466 45.8943C63.6447 50.8792 57.1754 49.4252 59.0386 44.8253C59.6373 43.353 63.9196 39.6205 64.6221 42.9376C64.8054 43.7929 64.8237 45.0146 64.6466 45.8943ZM54.5547 43.237C55.471 42.565 56.2957 42.5528 57.1204 43.3164C57.5969 46.2486 54.2798 45.8027 54.5547 43.237ZM73.7488 42.2534C72.6797 46.8778 65.5201 45.5522 66.7908 40.5979C67.8537 36.45 74.8423 37.5496 73.7488 42.2534ZM55.3489 38.5698C55.7032 39.0768 55.972 39.3456 56.0086 40.1703C55.5505 40.7018 54.292 41.4043 53.8522 40.3658C53.3207 39.1074 54.1332 38.5453 55.3489 38.5698ZM64.781 38.4537C64.8726 39.1562 64.8604 39.9504 64.3961 40.2864C62.6917 41.5204 60.8346 37.4335 64.781 38.4537ZM72.8936 34.8617C73.3517 35.9124 72.9424 36.7005 71.6535 36.7493C71.3786 36.4133 70.7738 35.943 71.1403 35.2588C71.4519 34.6906 72.2949 34.6968 72.8936 34.8617ZM57.9207 38.3987L57.6824 38.2704C57.1754 38.0566 56.9066 37.4335 56.5829 36.7738L56.4668 36.5416C55.8681 34.9961 55.5566 34.6357 56.0147 32.7725C57.7863 32.2349 59.1058 32.632 60.1932 33.6766C61.3233 34.7701 61.5066 35.7475 61.4394 37.8673C60.5964 38.5453 59.173 38.9974 57.9207 38.3987ZM64.7199 37.3419C64.4572 37.3419 64.5366 37.3969 64.5794 37.1037C63.773 35.888 64.7443 36.7066 63.4309 35.9857L63.1988 35.8758L63.1255 35.607C62.9239 35.1855 62.8933 35.0877 63.1377 34.7334C63.3576 33.5055 64.7687 32.5831 65.9661 32.1738C67.1084 31.7889 67.0474 31.3613 67.8049 31.2025C70.5966 30.6099 70.7982 34.7029 68.599 35.6375C67.8659 35.9491 67.1573 35.888 66.4731 36.2851C65.7706 36.6944 65.7034 37.1831 65.117 37.6596L64.7199 37.3419ZM66.5098 27.2928C66.3265 27.8487 66.0211 27.6777 65.3308 27.6838L60.8102 27.8976C60.5353 27.6654 60.5781 28.2458 60.5597 27.4333C60.9018 27.5494 60.8224 27.6166 60.8224 27.2562C60.3948 27.1462 60.4192 27.024 60.5597 27.4333C60.1138 27.5066 59.564 27.4822 59.0081 27.7204C58.275 28.0259 58.2384 28.0931 58.2139 28.9605C57.487 29.0522 58.0307 29.0033 57.5847 29.1316L56.8211 29.3698C56.7722 29.3881 56.705 29.4065 56.65 29.437L57.0471 29.5042C56.308 30.7626 51.5186 33.2917 51.5797 40.3414C51.6041 43.3225 52.3799 44.5626 53.3329 46.7862C53.9927 48.3379 54.9396 49.0954 56.3507 50.0056C56.8578 50.3355 57.0532 50.5798 57.5481 50.8792L57.5725 51.5206L56.9983 51.4473C57.6214 51.9849 56.2408 51.7527 57.3098 51.6428C57.3404 51.6428 57.4137 51.6244 57.4442 51.6183C57.4809 51.6061 57.5297 51.5572 57.5725 51.5206L58.1345 51.4962L58.4094 52.1315C58.5071 51.7833 58.1895 51.5695 59.4601 51.8871C60.743 52.2109 61.8854 52.5347 63.2537 52.6263C68.263 52.9745 72.7286 50.5187 75.0561 46.6091C76.5955 44.0311 77.518 40.659 76.5772 37.0731C75.4837 32.9069 73.9687 32.2043 71.8917 29.7669C72.1116 29.4859 71.8673 29.6753 72.356 29.5042C72.301 29.773 72.2704 29.663 72.6003 29.7119C72.6003 29.3332 72.6981 29.3881 72.356 29.5042C72.0933 29.2232 72.8264 29.2904 71.91 29.2721L71.6107 29.5775C71.3052 29.7364 71.2136 29.602 70.7738 29.3515L70.5416 29.211C70.5416 29.211 70.6882 29.5164 70.5966 28.8567C70.45 27.8304 68.1897 27.0973 67.2306 26.9935C67.0229 27.6716 67.2367 27.5555 66.8824 27.9037L66.5709 27.415C66.5586 27.3905 66.5342 27.3356 66.5098 27.2928Z" fill="#D3E3ED"/>
<path fill-rule="evenodd" clip-rule="evenodd" d="M70.5362 59.4192C71.3181 58.8633 72.717 57.953 74.0121 57.8492C74.5192 59.0649 74.9223 60.3233 75.576 61.6611C76.1441 62.8279 76.755 64.1658 77.2254 65.3692C77.9218 67.1286 80.9213 71.9118 78.3494 72.9503C76.4496 73.7262 75.0445 69.2484 73.9632 66.9148C73.4196 65.7358 70.5728 60.305 70.5362 59.4192ZM69.3572 55.1002L71.6174 54.19C71.984 54.978 72.5949 56.2792 72.7476 57.165C71.9229 57.4216 71.3548 57.9592 70.3529 58.0997C70.0047 57.501 69.3999 55.76 69.3572 55.1002ZM62.0143 25.5333C66.5287 24.7025 70.7988 26.7306 73.389 28.4594C75.631 29.95 78.27 33.6886 78.9847 37.6166C80.5853 46.4562 73.6761 53.0965 66.7792 54.5932C58.7399 56.3281 50.6212 50.1215 49.5216 42.4243C48.7825 37.244 50.4685 33.9941 52.5577 30.8724C54.1583 28.4839 57.958 26.2785 62.0143 25.5333ZM74.7818 71.753C75.3255 72.3394 75.9975 74.5081 78.1051 74.2637C79.8278 74.0621 80.5853 72.4983 80.5669 70.5495C80.176 68.7535 77.879 63.8725 76.9994 61.8139C73.5662 53.7257 74.6291 58.4479 73.4868 55.9371C73.2057 55.314 72.772 54.4221 72.6559 53.6952C73.4196 53.066 74.0915 52.8399 74.8246 52.113C76.9749 49.981 78.2334 48.6431 79.4429 45.2588C80.9029 41.1537 80.5303 36.4376 78.6182 32.7601C76.7611 29.1864 74.1771 27.0849 70.6522 25.4661C66.4738 23.5479 62.3197 23.5173 58.0557 25.2706C54.6653 26.6634 51.6536 29.1803 50.0348 32.5218C48.2143 36.3032 47.3224 40.5794 48.9169 45.1427C50.1142 48.5759 52.4967 51.9908 55.5877 53.7318C57.1699 54.6176 59.0637 55.3385 61.1957 55.7294C64.3723 56.3159 65.2825 55.705 68.0926 55.6072C68.3186 56.2365 68.7463 57.0184 69.0578 57.5926C69.9314 59.1993 69.0395 58.4967 69.2105 59.7063L73.9571 69.6821C74.2809 70.3296 74.7574 71.0444 74.7818 71.753Z" fill="#0C1214"/>
<path fill-rule="evenodd" clip-rule="evenodd" d="M48.8672 72.9321C48.7389 72.1013 48.6839 71.8448 49.533 71.7226L55.086 71.7653L55.0249 73.0726C53.6748 73.1948 49.8751 73.3414 48.8672 72.9321ZM36.5944 69.1752C36.5517 69.1507 36.4967 69.1141 36.4661 69.0958L36.1363 68.8392C35.7697 68.4543 35.788 68.1183 35.788 67.2265C35.7758 65.1433 35.6109 64.7401 36.5333 64.5813C36.7105 64.5508 37.0343 64.5447 37.2236 64.5447L41.2188 64.5202C43.0087 64.5141 44.7986 64.5263 46.5947 64.5385C47.5782 64.5385 56.3444 64.3125 57.1691 64.7157L57.2058 69.5173L44.5482 69.4379C45.6478 69.9999 46.332 69.6089 47.2788 70.6963C47.8836 71.3927 48.1952 72.6511 47.847 73.653L46.949 73.8973C46.729 73.9157 46.3136 73.8973 46.0754 73.8973L25.2625 73.8912C18.4633 73.9096 18.9031 74.5082 18.9398 72.4251C17.8646 73.146 17.1193 72.3335 16.6367 73.8118C20.4242 75.0336 20.3754 74.777 24.395 74.8198L68.0979 75.0764C71.7816 75.0702 81.9467 75.5284 84.2742 73.7507C83.9077 72.6206 81.9406 72.1441 80.7555 72.0647L80.5661 70.5497C80.5844 72.4984 79.8269 74.0623 78.1042 74.2639C75.9967 74.5082 75.3247 72.3396 74.781 71.7531L74.8604 72.1869C74.6527 71.4782 71.861 71.7531 70.3521 71.7043C68.666 71.6432 67.0044 71.6615 65.3184 71.6737C63.4857 71.692 56.3505 71.4966 55.2631 71.8936C55.0188 71.2094 55.031 70.9468 54.8539 69.8227C55.2509 69.8227 55.758 69.8533 56.1367 69.8411C57.3829 69.7922 57.444 69.0102 57.4562 68.9553L57.5173 67.0493C57.5173 64.8196 57.6639 64.4836 56.6621 64.2881L35.672 64.4469C35.6537 64.5019 35.6414 64.563 35.6292 64.6119C35.446 65.5404 35.3543 67.8679 35.672 68.5582C35.9469 69.163 36.2645 69.1446 36.5944 69.1752Z" fill="#D3E3ED"/>
<path fill-rule="evenodd" clip-rule="evenodd" d="M31.3972 38.2643C34.8304 38.9179 36.4065 42.4488 35.3252 45.5705C34.8487 46.9511 34.2745 47.226 33.7247 48.1484C34.3295 49.7428 35.4657 51.5694 35.9422 53.4021C37.7321 53.2554 41.8373 50.8608 43.6577 50.2865C43.3828 48.8815 42.2527 46.9877 41.5868 45.6804C40.2367 42.9986 36.2843 34.3424 35.1175 32.4792C34.7937 32.4792 34.9098 32.5403 34.9526 32.1493C34.7754 32.2776 34.5005 31.7033 34.7326 32.4425C34.5127 32.1126 34.4028 31.9966 34.0912 31.7033C33.6025 31.233 33.743 31.3124 33.1199 31.0802C33.0527 31.178 32.9 31.4101 32.8328 31.5018C32.5945 31.8622 33.1688 31.7644 32.3746 31.8316C32.0875 31.5445 31.9226 31.2757 31.6904 30.9886L29.8822 30.9764C29.8455 30.8909 29.2347 31.2757 29.9372 30.2861L30.1693 30.1273C30.3587 29.944 30.5053 29.7485 30.5969 29.6447C29.2957 29.7241 29.5523 30.1273 28.4955 30.3288L28.0373 30.3411C24.9829 29.1621 28.2878 34.9472 28.9475 36.4133C28.9903 36.5049 29.3629 37.4151 29.369 37.4579C29.4362 37.9161 29.7722 37.971 29.0819 37.9955C29.8333 37.91 30.7863 37.971 31.3972 38.2643Z" fill="#9BC7E4"/>
<path fill-rule="evenodd" clip-rule="evenodd" d="M72.3566 29.5042C72.6987 29.3881 72.601 29.3331 72.601 29.7119C73.2913 30.5182 74.0976 30.5671 75.5149 32.748C78.4838 37.3174 78.4105 43.1942 75.5943 47.1344C72.6315 51.2823 68.6913 53.5915 63.2361 53.3593C59.2714 53.1883 59.6074 52.3819 58.41 52.1314L58.1352 51.4961L57.5731 51.5205C57.5304 51.5572 57.4815 51.6061 57.4448 51.6183C57.4143 51.6244 57.341 51.6427 57.3105 51.6427C56.2414 51.7527 57.622 51.9848 56.9989 51.4472C55.0685 49.7734 56.5102 52.217 52.8632 47.2566C49.9615 43.3102 49.9309 36.7249 53.3947 32.5769C53.7368 32.1676 54.0178 31.795 54.3965 31.3307C54.7631 30.8848 54.9036 30.5671 55.38 30.225C55.7955 29.9318 56.388 29.8096 56.6507 29.437C56.7057 29.4064 56.7729 29.3881 56.8217 29.3698L57.5854 29.1315C58.0313 29.0032 57.4876 29.0521 58.2146 28.9605C58.239 28.093 58.2757 28.0258 59.0087 27.7204C59.5646 27.4821 60.1144 27.5066 60.5604 27.4333C60.4199 27.024 60.3954 27.1461 60.8231 27.2561C61.6722 27.2133 62.6802 26.8896 63.7553 26.8407C64.3173 26.8102 64.9404 26.8102 65.5025 26.859C66.1744 26.9201 66.2783 26.914 66.5104 27.2928C66.5349 27.3355 66.5593 27.3905 66.5715 27.4149L66.8831 27.9036C67.2374 27.5554 67.0236 27.6715 67.2313 26.9934C68.1904 27.0973 70.4506 27.8303 70.5973 28.8566C70.6889 29.5164 70.5423 29.2109 70.5423 29.2109L70.7744 29.3515C71.2143 29.6019 71.3059 29.7363 71.6113 29.5775L71.9107 29.272C72.827 29.2904 72.0939 29.2232 72.3566 29.5042ZM62.0143 25.5334C57.958 26.2787 54.1583 28.484 52.5577 30.8726C50.4685 33.9942 48.7825 37.2441 49.5216 42.4244C50.6212 50.1216 58.7399 56.3282 66.7792 54.5933C73.6761 53.0966 80.5853 46.4563 78.9847 37.6168C78.27 33.6888 75.631 29.9501 73.389 28.4596C70.7989 26.7307 66.5287 24.7026 62.0143 25.5334Z" fill="white"/>
<path fill-rule="evenodd" clip-rule="evenodd" d="M27.346 65.1372C26.8511 64.5446 26.0387 64.2147 25.3667 63.6527C23.3996 62.0155 22.3367 59.5598 22.4711 56.6397C22.746 50.873 26.8573 48.9303 27.3337 48.295C26.4907 47.9529 26.2403 47.5619 25.7515 46.7861C25.3728 46.1813 25.214 45.375 24.7436 44.8557C21.4753 46.8839 17.5718 52.4246 17.9627 58.729C18.2743 63.7077 23.0392 69.615 27.6453 69.4561C26.8328 67.2264 26.7106 67.6907 27.346 65.1372Z" fill="#9BC7E4"/>
<path fill-rule="evenodd" clip-rule="evenodd" d="M26.6495 72.8771C29.484 72.8771 45.5931 73.1703 46.8393 72.5961C46.204 70.0548 43.956 70.5557 41.042 70.5496C38.5985 70.5374 22.8987 70.3664 21.5058 70.5802C20.3207 70.7635 20.0519 71.5393 20.1985 72.871L26.6495 72.8771Z" fill="#314E6E"/>
<path fill-rule="evenodd" clip-rule="evenodd" d="M70.5361 59.4194C70.5728 60.3052 73.4195 65.736 73.9632 66.915C75.0445 69.2486 76.4495 73.7264 78.3494 72.9506C80.9212 71.912 77.9218 67.1288 77.2254 65.3694C76.755 64.166 76.1441 62.8282 75.576 61.6614C74.9223 60.3235 74.5191 59.0651 74.0121 57.8494C72.717 57.9533 71.3181 58.8635 70.5361 59.4194Z" fill="#9BC7E4"/>
<path fill-rule="evenodd" clip-rule="evenodd" d="M37.1576 68.3444C40.4319 68.772 44.4516 68.6376 47.8359 68.4482C56.8221 67.9534 56.0584 69.8594 55.9913 65.6259L37.0293 65.6442L37.1576 68.3444Z" fill="#6DB5F1"/>
<path fill-rule="evenodd" clip-rule="evenodd" d="M41.8619 59.8164L42.0512 59.9691C42.0085 60.244 41.9474 60.1829 42.2223 60.1585C42.5766 60.58 42.4056 60.2929 42.5461 60.1951L42.2223 60.1585L42.0512 59.9691L41.8619 59.8164L41.8252 59.572C42.8271 59.2849 43.4441 59.1139 44.1099 58.5763C44.1466 58.8573 44.0672 58.7901 44.3421 58.7901C44.397 58.3991 44.4826 58.4541 44.1099 58.5763C44.0672 57.3179 44.5681 57.9287 46.2969 56.6459L41.9107 52.3941C40.9883 52.6201 38.9113 53.1821 38.7891 54.0618L38.6669 56.9452C38.557 57.941 38.276 58.8206 38.1904 59.963L41.3915 59.0833C41.4281 59.1322 41.4587 59.2055 41.4831 59.2483C42.0512 60.2012 41.3854 59.4132 41.8619 59.8164Z" fill="#314E6E"/>
<path fill-rule="evenodd" clip-rule="evenodd" d="M58.4102 52.1313C59.6075 52.3818 59.2715 53.1881 63.2362 53.3592C68.6914 53.5913 72.6316 51.2822 75.5944 47.1342C78.4106 43.194 78.4839 37.3173 75.515 32.7478C74.0978 30.567 73.2914 30.5181 72.6011 29.7117C72.2712 29.6629 72.3017 29.7728 72.3567 29.504C71.868 29.6751 72.1124 29.4857 71.8924 29.7667C73.9695 32.2042 75.4845 32.9067 76.578 37.0729C77.5187 40.6588 76.5963 44.0309 75.0568 46.6089C72.7294 50.5186 68.2638 52.9743 63.2545 52.6261C61.8861 52.5345 60.7437 52.2107 59.4609 51.8869C58.1902 51.5693 58.5079 51.7831 58.4102 52.1313Z" fill="#0C1214"/>
<path fill-rule="evenodd" clip-rule="evenodd" d="M31.3966 38.2642C30.7857 37.971 29.8327 37.9099 29.0813 37.9954C29.7716 37.971 29.4356 37.916 29.3684 37.4578C29.3623 37.4151 28.9897 36.5049 28.9469 36.4132C28.2872 34.9471 24.9823 29.162 28.0367 30.341L28.4949 30.3288C29.5517 30.1272 29.2951 29.724 30.5963 29.6446C30.5047 29.7485 30.3581 29.9439 30.1687 30.1272L29.9365 30.286C29.234 31.2757 29.8449 30.8908 29.8816 30.9763L29.9365 30.286L30.1687 30.1272C30.969 29.8034 31.5676 29.8034 32.4534 29.8645L32.8322 31.5017C32.8994 31.4101 33.0521 31.1779 33.1193 31.0802C33.7424 31.3123 33.6019 31.2329 34.0906 31.7033C34.4021 31.9965 34.5121 32.1126 34.732 32.4425C34.4999 31.7033 34.7748 32.2775 34.9519 32.1492C34.9092 32.5402 34.7931 32.4791 35.1169 32.4791L34.9519 32.1492L32.1785 26.5046C31.0972 26.7062 26.3079 28.8993 25.1777 29.4736L28.9041 38.2215L31.3966 38.2642Z" fill="#6DB5F1"/>
<path fill-rule="evenodd" clip-rule="evenodd" d="M32.4288 65.9252C32.9114 68.1183 30.5106 68.4665 29.857 67.489C29.0567 66.2856 30.4801 64.5385 32.4288 65.9252ZM28.0854 67.5685C28.4031 69.224 30.0342 69.9509 32.0073 69.6394C34.1699 69.2973 34.4081 67.2508 34.066 66.2062C32.777 62.2965 27.3462 63.7871 28.0854 67.5685Z" fill="white"/>
<path fill-rule="evenodd" clip-rule="evenodd" d="M68.8919 39.2174C69.6494 39.4434 69.0996 39.2968 69.3073 38.9547C68.5681 39.0585 68.9163 38.9425 68.8919 39.2174C66.2773 39.6144 67.664 45.6928 71.5065 43.9151C74.1516 42.6872 72.5633 38.2521 69.8449 38.7958C69.1179 38.9425 69.5761 38.8142 69.3134 39.0402L70.3519 39.1318C70.303 39.1685 70.303 39.1868 70.2847 39.2112C70.2786 39.2174 70.2481 39.254 70.242 39.2662C70.2297 39.2784 70.1992 39.3212 70.187 39.3334C70.1625 39.364 70.0037 39.5656 69.9732 39.6083C69.7288 39.9443 69.7594 39.9749 69.5883 40.2497C69.1485 40.9462 67.609 41.7098 68.7453 39.5778C68.9163 39.254 68.7514 39.645 68.8919 39.2174Z" fill="#2CAC73"/>
<path fill-rule="evenodd" clip-rule="evenodd" d="M56.998 51.4473L57.5723 51.5206L57.5478 50.8792C57.053 50.5798 56.8575 50.3355 56.3505 50.0056C54.9393 49.0954 53.9925 48.3379 53.3327 46.7862C52.3797 44.5626 51.6039 43.3225 51.5794 40.3413C51.5184 33.2917 56.3077 30.7626 57.0469 29.5042L56.6498 29.437C56.3871 29.8097 55.7946 29.9318 55.3792 30.2251C54.9027 30.5672 54.7622 30.8848 54.3956 31.3308C54.0169 31.795 53.7359 32.1677 53.3938 32.577C49.9301 36.7249 49.9606 43.3103 52.8623 47.2566C56.5093 52.217 55.0676 49.7734 56.998 51.4473Z" fill="#0C1214"/>
<path fill-rule="evenodd" clip-rule="evenodd" d="M63.3888 42.2901C60.6276 42.0213 58.5384 47.0245 60.4199 48.2035C62.6863 49.6207 64.69 45.1124 63.3888 42.2901Z" fill="#2CAC73"/>
<path fill-rule="evenodd" clip-rule="evenodd" d="M68.8926 39.2172C68.9171 38.9423 68.5689 39.0583 69.308 38.9545L69.3141 39.04C69.5768 38.814 69.1187 38.9423 69.8456 38.7957C72.5641 38.252 74.1524 42.687 71.5072 43.9149C67.6647 45.6926 66.278 39.6143 68.8926 39.2172ZM73.7492 42.2533C74.8427 37.5495 67.8541 36.4499 66.7912 40.5978C65.5205 45.5521 72.6801 46.8777 73.7492 42.2533Z" fill="#0C1214"/>
<path fill-rule="evenodd" clip-rule="evenodd" d="M29.4235 47.8918L29.9489 47.7941C30.0405 46.6945 30.0466 47.3237 29.448 46.7678C28.6049 46.9633 29.1181 46.835 28.9898 46.6578C28.2812 46.7861 28.7516 46.6945 28.6049 46.499C27.9269 46.6212 28.4278 46.5418 28.2384 46.2424C27.6825 45.5399 27.206 45.3689 27.0838 43.9944C26.9861 42.9009 27.261 41.9601 27.8597 41.3675C29.167 40.0908 31.134 40.4023 32.594 41.392C33.0033 41.3737 32.985 41.2454 32.8567 41.5875C33.1866 41.0254 32.9117 41.2087 33.2721 40.6589C32.9239 40.7811 32.9972 40.8239 33.1133 40.4695C32.7895 40.5795 32.8628 40.6223 32.9545 40.2863C32.6551 40.3779 32.7101 40.4329 32.7712 40.1274C32.4658 40.2069 32.5513 40.2557 32.5513 39.9259C31.4517 39.3455 30.1688 38.9912 28.6783 39.6143C27.6886 40.0297 26.4791 41.0499 26.1186 41.8563C24.8969 44.6052 27.371 47.8857 29.4235 47.8918Z" fill="#D3E3ED"/>
<path fill-rule="evenodd" clip-rule="evenodd" d="M32.3606 44.3304C33.5824 41.6181 28.7625 40.3291 27.8584 42.8093C26.7283 45.9248 31.2549 46.7923 32.3606 44.3304Z" fill="#FCD26F"/>
<path fill-rule="evenodd" clip-rule="evenodd" d="M63.3897 42.2901C64.6909 45.1124 62.6871 49.6207 60.4208 48.2035C58.5392 47.0245 60.6285 42.0213 63.3897 42.2901ZM64.6481 45.8943C64.8253 45.0146 64.8069 43.7929 64.6237 42.9376C63.9211 39.6205 59.6388 43.353 59.0401 44.8253C57.1769 49.4252 63.6462 50.8792 64.6481 45.8943Z" fill="#0C1214"/>
<path fill-rule="evenodd" clip-rule="evenodd" d="M63.4315 35.9857L63.1993 35.8757L63.126 35.6069L63.1383 34.7334C62.8939 35.0877 62.9244 35.1854 63.126 35.6069L63.1993 35.8757L63.4315 35.9857C64.7449 36.7065 63.7736 35.8879 64.5799 37.1036C64.5372 37.3968 64.4578 37.3419 64.7205 37.3419L64.5799 37.1036C64.8548 36.3522 64.4028 37.0486 65.1969 36.3889C66.1927 35.5703 66.3821 35.5397 67.6894 35.216C68.9478 34.9044 69.5098 33.9453 69.1799 32.3081C67.9887 31.4224 67.6894 32.2715 66.6509 32.6808L64.6838 33.6277C63.8469 34.1469 64.1035 34.4279 64.0485 36.0223L63.4315 35.9857Z" fill="#2CAC73"/>
<path fill-rule="evenodd" clip-rule="evenodd" d="M32.3619 44.3304C31.2562 46.7923 26.7295 45.9248 27.8596 42.8093C28.7637 40.3291 33.5836 41.618 32.3619 44.3304ZM28.2384 46.2425C28.8554 46.3891 28.5927 46.2547 28.6049 46.499C29.2158 46.4685 28.9409 46.4074 28.9898 46.6579C29.6923 46.5662 29.338 46.5968 29.4479 46.7678C31.1034 46.5662 32.0747 46.4013 32.7467 45.2223C33.9196 43.1636 33.0338 42.4 32.8567 41.5875C32.5024 41.7158 32.594 41.7769 32.594 41.392C31.134 40.4024 29.1669 40.0908 27.8596 41.3676C27.261 41.9601 26.9861 42.9009 27.0838 43.9944C27.206 45.3689 27.6825 45.5399 28.2384 46.2425Z" fill="#0C1214"/>
<path fill-rule="evenodd" clip-rule="evenodd" d="M56.5829 36.7736C56.9066 37.4334 57.1754 38.0565 57.6825 38.2703C58.1712 37.6655 58.5805 38.4475 59.6068 38.0504C59.9916 37.9038 60.6331 37.5067 60.9202 37.2196C61.0668 35.8695 60.2848 35.0509 59.6251 34.4217C57.6947 32.5829 56.2286 32.8762 56.705 34.7272C56.8822 35.4297 57.4015 36.1444 57.9024 36.6514C58.4277 37.1951 58.2995 36.8408 58.5255 37.6655C57.4015 37.4761 57.2243 37.2684 56.5829 36.7736Z" fill="#2CAC73"/>
<path fill-rule="evenodd" clip-rule="evenodd" d="M32.7702 40.1275C32.7091 40.4329 32.6541 40.3779 32.9534 40.2863C32.8618 40.6223 32.7885 40.5795 33.1123 40.4696C32.9962 40.8239 32.9229 40.7811 33.2711 40.6589C32.9107 41.2087 33.1856 41.0255 32.8557 41.5875C32.984 41.2454 33.0023 41.3737 32.593 41.392C32.593 41.7768 32.5014 41.7158 32.8557 41.5875C33.0329 42.4 33.9186 43.1636 32.7457 45.2223C32.0738 46.4013 31.1025 46.5662 29.447 46.7678C29.337 46.5968 29.6913 46.5662 28.9888 46.6578C28.9399 46.4074 29.2148 46.4685 28.6039 46.499C28.5917 46.2547 28.8544 46.389 28.2374 46.2424C28.4268 46.5418 27.9258 46.6212 28.6039 46.499C28.7505 46.6945 28.2802 46.7861 28.9888 46.6578C29.1171 46.835 28.6039 46.9633 29.447 46.7678C30.0456 47.3237 30.0395 46.6945 29.9479 47.7941L29.4225 47.8918C30.1006 48.4538 31.7195 47.9835 32.2448 47.6841C32.9107 47.3054 33.6499 46.4685 34.0408 45.8148C34.5112 45.0207 34.7189 44.031 34.6028 42.9864C34.5479 42.4549 34.4074 42.0945 34.1813 41.673C33.9492 41.2393 33.6865 40.8422 33.2711 40.6589C33.3933 40.3107 33.4605 40.3596 33.1123 40.4696C33.2283 40.1397 33.2894 40.1885 32.9534 40.2863C33.0512 39.9747 33.0878 40.0541 32.7702 40.1275C32.8313 39.8403 32.874 39.932 32.5503 39.9259C32.5503 40.2557 32.4647 40.2069 32.7702 40.1275Z" fill="#8D9293"/>
<path fill-rule="evenodd" clip-rule="evenodd" d="M63.1382 34.7334L63.126 35.607L63.1993 35.8758L63.4314 35.9857L64.0484 36.0224C64.1034 34.428 63.8468 34.1469 64.6837 33.6277L66.6508 32.6808C67.6893 32.2715 67.9886 31.4224 69.1799 32.3082C69.5098 33.9454 68.9477 34.9044 67.6893 35.216C66.382 35.5398 66.1926 35.5703 65.1969 36.3889C64.4027 37.0487 64.8548 36.3522 64.5799 37.1036L64.7204 37.3419L65.1175 37.6595C65.7039 37.1831 65.7711 36.6943 66.4736 36.285C67.1578 35.888 67.8665 35.9491 68.5995 35.6375C70.7987 34.7029 70.5971 30.6099 67.8054 31.2025C67.0479 31.3613 67.109 31.7889 65.9666 32.1738C64.7693 32.5831 63.3581 33.5055 63.1382 34.7334Z" fill="#0C1214"/>
<path fill-rule="evenodd" clip-rule="evenodd" d="M56.4674 36.5415L56.5835 36.7737C57.2249 37.2685 57.4021 37.4762 58.5261 37.6656C58.3001 36.8409 58.4284 37.1952 57.903 36.6515C57.4021 36.1445 56.8828 35.4297 56.7057 34.7272C56.2292 32.8762 57.6953 32.583 59.6257 34.4218C60.2855 35.051 61.0674 35.8696 60.9208 37.2196C60.6337 37.5067 59.9922 37.9038 59.6074 38.0504C58.5811 38.4475 58.1718 37.6656 57.6831 38.2704L57.9213 38.3986C59.1737 38.9973 60.597 38.5452 61.4401 37.8672C61.5072 35.7474 61.324 34.77 60.1938 33.6765C59.1065 32.6319 57.7869 32.2348 56.0154 32.7724C55.5572 34.6356 55.8688 34.996 56.4674 36.5415Z" fill="#0C1214"/>
<path fill-rule="evenodd" clip-rule="evenodd" d="M23.0693 22.6685C23.0877 23.9208 23.8146 23.7131 26.1971 23.4565C27.4127 23.3221 29.0011 23.4443 29.5936 22.6563C29.1599 21.4101 27.932 21.9049 26.4842 21.9843C25.3541 22.0393 23.7352 22.0271 23.0693 22.6685Z" fill="#366D8B"/>
<path fill-rule="evenodd" clip-rule="evenodd" d="M48.8674 72.9322C49.8754 73.3414 53.6751 73.1948 55.0251 73.0727L55.0862 71.7654L49.5333 71.7226C48.6841 71.8448 48.7391 72.1013 48.8674 72.9322Z" fill="#0C1214"/>
<path fill-rule="evenodd" clip-rule="evenodd" d="M69.3574 55.1003C69.4002 55.76 70.005 57.5011 70.3532 58.0997C71.355 57.9592 71.9232 57.4217 72.7478 57.1651C72.5951 56.2793 71.9842 54.9781 71.6177 54.1901L69.3574 55.1003Z" fill="#8D9293"/>
<path fill-rule="evenodd" clip-rule="evenodd" d="M26.8753 27.2683C27.3518 27.1644 28.879 26.4985 29.3616 26.2725C29.3066 25.5517 28.9767 25.008 28.6957 24.4521C28.0482 24.3971 25.8612 24.4704 25.7574 24.9164C25.6779 25.234 26.692 26.9201 26.8753 27.2683Z" fill="#9BC7E4"/>
<path fill-rule="evenodd" clip-rule="evenodd" d="M54.5553 43.2368C54.2804 45.8026 57.5975 46.2485 57.121 43.3163C56.2963 42.5527 55.4716 42.5649 54.5553 43.2368Z" fill="#0C1214"/>
<path fill-rule="evenodd" clip-rule="evenodd" d="M31.5736 67.1103C30.755 67.5501 30.1197 66.9209 30.5717 66.1084C31.4453 65.8641 31.8179 66.2367 31.5736 67.1103ZM32.4288 65.9252C30.4801 64.5385 29.0567 66.2856 29.857 67.489C30.5106 68.4665 32.9114 68.1183 32.4288 65.9252Z" fill="#0C1214"/>
<path fill-rule="evenodd" clip-rule="evenodd" d="M60.8223 27.2561C60.8223 27.6165 60.9017 27.5493 60.5596 27.4333C60.5779 28.2458 60.5351 27.6654 60.81 27.8976L65.3306 27.6837C66.0209 27.6776 66.3263 27.8487 66.5096 27.2928C66.2775 26.914 66.1736 26.9201 65.5017 26.859C64.9396 26.8102 64.3165 26.8102 63.7545 26.8407C62.6794 26.8896 61.6714 27.2134 60.8223 27.2561Z" fill="#0C1214"/>
<path fill-rule="evenodd" clip-rule="evenodd" d="M66.6089 49.2786C66.9693 49.2603 67.6901 48.9915 67.9284 48.8571C68.4843 48.5394 68.5637 48.2035 68.4476 47.4154C66.9021 46.2059 64.8862 47.4643 66.6089 49.2786Z" fill="#253B48"/>
<path fill-rule="evenodd" clip-rule="evenodd" d="M64.7815 38.4536C60.8351 37.4335 62.6922 41.5203 64.3966 40.2863C64.8609 39.9503 64.8731 39.1562 64.7815 38.4536Z" fill="#0C1214"/>
<path fill-rule="evenodd" clip-rule="evenodd" d="M55.349 38.5697C54.1333 38.5453 53.3208 39.1073 53.8523 40.3657C54.2921 41.4042 55.5506 40.7017 56.0087 40.1703C55.9721 39.3456 55.7033 39.0768 55.349 38.5697Z" fill="#0C1214"/>
<path fill-rule="evenodd" clip-rule="evenodd" d="M30.169 30.1273L29.9368 30.2861L29.8818 30.9764L31.6901 30.9886C31.9222 31.2757 32.0871 31.5445 32.3743 31.8316C33.1684 31.7644 32.5942 31.8622 32.8324 31.5018L32.4537 29.8646C31.5679 29.8035 30.9692 29.8035 30.169 30.1273Z" fill="#0C1214"/>
<path fill-rule="evenodd" clip-rule="evenodd" d="M72.8944 34.8617C72.2957 34.6967 71.4527 34.6906 71.1411 35.2588C70.7746 35.9429 71.3794 36.4133 71.6543 36.7493C72.9432 36.7004 73.3525 35.9124 72.8944 34.8617Z" fill="#0C1214"/>
<path fill-rule="evenodd" clip-rule="evenodd" d="M41.8609 59.8163L42.0502 59.9691L42.2213 60.1584L42.5451 60.1951C43.0277 60.134 43.4003 60.0057 43.8279 59.7675C44.3533 59.4681 44.3227 59.517 44.3411 58.79C44.0662 58.79 44.1456 58.8572 44.1089 58.5762C43.4431 59.1138 42.8261 59.2849 41.8242 59.572L41.8609 59.8163Z" fill="#9BC7E4"/>
<path fill-rule="evenodd" clip-rule="evenodd" d="M68.8926 39.2172C68.752 39.6448 68.917 39.2539 68.7459 39.5776C67.6097 41.7096 69.1491 40.946 69.589 40.2496C69.76 39.9747 69.7295 39.9442 69.9738 39.6082C70.0044 39.5654 70.1632 39.3638 70.1876 39.3333C70.1999 39.3211 70.2304 39.2783 70.2426 39.2661C70.2487 39.2539 70.2793 39.2172 70.2854 39.2111C70.3037 39.1867 70.3037 39.1683 70.3526 39.1317L69.3141 39.0401L69.308 38.9545C69.1003 39.2966 69.6501 39.4432 68.8926 39.2172Z" fill="#55C989"/>
<path fill-rule="evenodd" clip-rule="evenodd" d="M31.5741 67.1103C31.8184 66.2367 31.4458 65.8641 30.5722 66.1084C30.1202 66.9209 30.7555 67.5501 31.5741 67.1103Z" fill="#D4482E"/>
</svg>
